<svg fill="none" height="1008" viewBox="0 0 2280 1008" width="2280" xmlns="http://www.w3.org/2000/svg" xmlns:xlink="http://www.w3.org/1999/xlink"><clipPath id="a"><path d="m0 0h2280v1008h-2280z"/></clipPath><g clip-path="url(#a)"><path d="m2280.03 752.969v104.29h-1423.995s-138.236 0-138.236 150.751h-109.447c0-150.751-138.235-150.751-138.235-150.751h-470.08575v-104.29h470.14475c63.646 0 110.934 16.164 146.028 40.291 16.655 11.494 30.633 24.845 42.232 39.094 1.666 1.975 3.272 3.951 4.759 5.986 1.487-2.035 3.033-4.011 4.758-5.986 11.54-14.249 25.518-27.6 42.232-39.094 35.035-24.127 82.264-40.291 145.969-40.291h1423.996z" fill="#001e6c"/><path d="m658.377 7.78125c-364.029 2.57435-658.34575 300.29775-658.34575 667.34775h483.40975c55.794 2.455 98.145 17.781 130.265 39.872 16.655 11.495 30.633 24.845 42.173 39.094.892 1.018 1.665 2.095 2.498 3.113z" fill="#e8630a"/><g fill="#001e6c"><path d="m2212.38 689.348v-92.638c0-12.162-2.26-22.176-6.79-30.045-4.52-8.108-10.83-14.069-18.93-17.884-7.86-4.054-16.91-6.081-27.15-6.081-9.53 0-19.3 1.789-29.3 5.365-10 3.577-19.53 8.585-28.58 15.023s-17.15 14.426-24.29 23.964c-7.15 9.538-12.87 20.269-17.15 32.191-4.05 11.923-6.08 24.918-6.08 38.987h-51.8c0-10.969.95-23.011 2.86-36.125 2.14-13.115 5.6-26.588 10.36-40.418 5-14.069 11.31-27.541 18.93-40.418 7.63-12.876 17.03-24.441 28.23-34.694 11.43-10.254 24.77-18.361 40.01-24.322 15.48-6.2 32.99-9.3 52.52-9.3 20.48 0 38.11 3.338 52.88 10.015 15 6.677 27.39 15.857 37.15 27.541 9.77 11.446 17.03 24.561 21.79 39.345 5.01 14.784 7.51 30.402 7.51 46.856v92.638zm-327.61 0v-72.251h20.36c9.06 0 15.96-.834 20.73-2.504 4.76-1.907 8.09-5.007 10-9.299 1.9-4.292 2.86-10.373 2.86-18.242v-67.958h62.16v67.958c0 21.222-3.93 39.583-11.79 55.083-7.62 15.26-18.58 26.945-32.87 35.052-14.05 8.107-31.08 12.161-51.09 12.161zm149.69 0c-16.19 0-30.12-4.054-41.8-12.161-11.43-8.107-20.12-19.792-26.08-35.052-5.95-15.5-8.93-33.861-8.93-55.083h43.23c0 7.869.84 13.95 2.5 18.242 1.91 4.292 5.24 7.392 10.01 9.299 5 1.67 12.02 2.504 21.07 2.504h240.09v72.251zm-149.69 0c-2.14 0-3.81-3.338-5-10.015-1.43-6.677-2.15-15.499-2.15-26.468 0-10.73.72-19.315 2.15-25.753 1.19-6.677 2.86-10.015 5-10.015z"/><path d="m1722.9 689.346v-72.251h20.36c9.05 0 15.96-.834 20.72-2.503 4.76-1.908 8.1-5.008 10-9.3 1.91-4.292 2.86-10.373 2.86-18.242v-85.485h62.17v85.485c0 21.223-3.93 39.464-11.79 54.725-7.62 15.261-18.58 26.945-32.87 35.052-14.05 8.108-31.08 12.281-51.09 12.519zm149.69 0c-20.01 0-37.16-4.054-51.45-12.161s-25.24-19.791-32.87-35.052c-7.62-15.5-11.43-33.86-11.43-55.083h62.17c0 7.869.83 13.95 2.5 18.242 1.9 4.292 5.24 7.392 10 9.3 5 1.669 12.03 2.503 21.08 2.503h12.15v72.251zm12.15 0v-72.251c2.14 0 3.81 3.339 5 10.015 1.43 6.438 2.14 15.023 2.14 25.753 0 10.969-.71 19.791-2.14 26.468-1.19 6.677-2.86 10.015-5 10.015zm-161.84 0c-2.15 0-3.82-3.338-5.01-10.015-1.43-6.677-2.14-15.499-2.14-26.468 0-10.73.71-19.315 2.14-25.753 1.19-6.676 2.86-10.015 5.01-10.015zm80.38-227.125c-10 0-18.22-3.219-24.65-9.657-6.43-6.439-9.65-14.665-9.65-24.68s3.22-18.242 9.65-24.68 14.65-9.657 24.65-9.657c10.24 0 18.46 3.219 24.65 9.657 6.43 6.438 9.65 14.665 9.65 24.68s-3.22 18.241-9.65 24.68c-6.19 6.438-14.41 9.657-24.65 9.657z"/><path d="m1455.3 689.349v-72.251h91.46c6.43 0 13.22-.834 20.37-2.504 7.38-1.669 14.52-3.815 21.43-6.438 7.15-2.623 13.58-5.603 19.29-8.942 5.96-3.338 10.6-6.557 13.94-9.657 3.57-3.338 5.36-6.319 5.36-8.942 0-3.1-2.27-6.08-6.79-8.942-4.53-2.861-10.84-5.246-18.94-7.153-7.86-1.908-17.03-2.862-27.51-2.862-8.81 0-17.15.835-25.01 2.504-7.85 1.431-15.71 3.696-23.57 6.796l-10.37 10.372-35.01-19.314 33.94-55.44c9.53-2.862 19.65-5.246 30.37-7.154 10.96-2.146 22.98-3.219 36.08-3.219 21.68 0 40.61 2.862 56.81 8.584 16.43 5.485 29.18 13.354 38.23 23.607 9.29 10.015 13.93 21.818 13.93 35.41 0 11.446-3.1 22.534-9.29 33.264-6.19 10.492-14.41 20.388-24.65 29.687-10.24 9.3-21.91 17.765-35.01 25.396-12.86 7.63-26.2 14.187-40.02 19.672-13.81 5.484-27.27 9.776-40.37 12.876s-24.89 4.65-35.37 4.65zm199.36 0c-29.54 0-56.21-5.246-80.03-15.738-23.58-10.492-43.59-25.276-60.02-44.352-16.2-19.076-27.75-41.49-34.66-67.243l45.38-21.103c2.62 15.261 7.62 28.614 15 40.06 7.62 11.445 17.15 20.387 28.58 26.826 11.67 6.199 24.65 9.299 38.94 9.299h115.04v72.251zm68.23 0v-72.251c1.91 0 3.58 3.338 5 10.015 1.43 6.438 2.15 15.023 2.15 25.753 0 10.969-.72 19.791-2.15 26.468-1.42 6.677-3.09 10.015-5 10.015zm-267.59 0c-2.14 0-3.81-3.338-5-10.015-1.43-6.677-2.14-15.499-2.14-26.468 0-10.73.71-19.315 2.14-25.753 1.19-6.677 2.86-10.015 5-10.015z"/><path d="m1371.21 689.345v-72.251h83.96v72.251zm83.96 0v-72.251c2.14 0 3.81 3.338 5 10.015 1.43 6.438 2.14 15.022 2.14 25.752 0 10.969-.71 19.792-2.14 26.469-1.19 6.676-2.86 10.015-5 10.015zm-83.96 0c-2.15 0-3.81-3.339-5-10.015-1.43-6.677-2.15-15.5-2.15-26.469 0-10.73.72-19.314 2.15-25.752 1.19-6.677 2.85-10.015 5-10.015z"/><path d="m1287.15 689.345v-72.251h83.95v72.251zm83.95 0v-72.251c2.15 0 3.81 3.338 5 10.015 1.43 6.438 2.15 15.022 2.15 25.752 0 10.969-.72 19.792-2.15 26.469-1.19 6.676-2.85 10.015-5 10.015zm-83.95 0c-2.15 0-3.82-3.339-5.01-10.015-1.43-6.677-2.14-15.5-2.14-26.469 0-10.73.71-19.314 2.14-25.752 1.19-6.677 2.86-10.015 5.01-10.015z"/><path d="m1203.05 689.345v-72.251h83.96v72.251zm83.96 0v-72.251c2.14 0 3.81 3.338 5 10.015 1.43 6.438 2.14 15.022 2.14 25.752 0 10.969-.71 19.792-2.14 26.469-1.19 6.676-2.86 10.015-5 10.015zm-83.96 0c-2.14 0-3.81-3.339-5-10.015-1.43-6.677-2.14-15.5-2.14-26.469 0-10.73.71-19.314 2.14-25.752 1.19-6.677 2.86-10.015 5-10.015z"/><path d="m1118.96 689.345v-72.251h83.96v72.251zm83.96 0v-72.251c2.14 0 3.81 3.338 5 10.015 1.43 6.438 2.14 15.022 2.14 25.752 0 10.969-.71 19.792-2.14 26.469-1.19 6.676-2.86 10.015-5 10.015zm-83.96 0c-2.15 0-3.81-3.339-5-10.015-1.43-6.677-2.15-15.5-2.15-26.469 0-10.73.72-19.314 2.15-25.752 1.19-6.677 2.85-10.015 5-10.015z"/><path d="m1077.68 689.343v-72.251h41.44v72.251zm-59.3 0v-316.187h62.16v316.187zm100.74 0v-72.251c1.91 0 3.58 3.339 5.01 10.015 1.42 6.438 2.14 15.023 2.14 25.753 0 10.969-.72 19.791-2.14 26.468-1.43 6.677-3.1 10.015-5.01 10.015z"/><path d="m902.242 668.607c-23.579 0-44.42-3.219-62.521-9.658-17.864-6.676-31.916-16.453-42.158-29.329-10.241-13.115-15.362-29.21-15.362-48.287 0-15.26 3.096-28.852 9.289-40.775 6.431-12.161 14.886-22.414 25.366-30.76 10.718-8.346 22.865-14.784 36.441-19.315 13.814-4.53 28.343-6.795 43.586-6.795 12.147 0 24.175 1.549 36.084 4.649 11.909 2.862 22.865 7.273 32.868 13.234l-24.294 59.017c-5.716-1.669-12.266-2.861-19.649-3.577-7.146-.953-13.934-1.43-20.364-1.43-12.624 0-23.699 1.43-33.226 4.292-9.527 2.623-16.911 6.319-22.151 11.088-5.001 4.53-7.502 9.538-7.502 15.022 0 5.485 2.62 10.611 7.86 15.38 5.24 4.531 12.623 8.346 22.15 11.446 9.765 2.861 20.96 4.292 33.583 4.292zm-133.617 20.745v-72.251h211.144v72.251z"/><path d="m2014.58 338.168v-72.251c9.53 0 17.63-1.311 24.3-3.934 6.9-2.623 13.33-6.916 19.29-12.877 5.95-6.2 12.27-14.188 18.93-23.964 6.2-8.584 12.87-17.288 20.01-26.111 7.15-8.822 15.13-16.93 23.94-24.322 8.81-7.63 18.58-13.711 29.29-18.241 10.96-4.531 23.34-6.796 37.16-6.796 13.58 0 25.72 2.861 36.44 8.584s19.77 13.711 27.15 23.965c7.62 10.014 13.34 21.937 17.15 35.767 4.05 13.83 6.07 28.972 6.07 45.425 0 13.83-1.66 28.495-5 43.995-3.33 15.261-7.98 29.329-13.93 42.206l-60.02-23.965c5.48-9.538 9.65-19.553 12.5-30.045 2.86-10.73 4.29-21.46 4.29-32.191 0-14.784-2.26-25.514-6.79-32.191-4.52-6.915-10.83-10.372-18.93-10.372-5.48 0-11.44 1.788-17.87 5.365-6.19 3.338-12.74 8.465-19.65 15.38-6.9 6.915-14.17 15.738-21.79 26.468-11.43 16.453-22.74 29.807-33.94 40.06-10.95 10.253-22.74 17.884-35.37 22.891-12.38 4.769-26.79 7.154-43.23 7.154zm237.23-60.805 3.57 72.251c-24.53 1.43-45.85 1.192-63.95-.716-17.86-1.669-33.58-4.769-47.16-9.299-13.34-4.531-25.25-10.373-35.73-17.527-10.48-7.153-20.24-15.499-29.29-25.037l40.37-42.564c7.86 8.108 17.62 14.069 29.29 17.884 11.91 3.577 26.32 5.604 43.23 6.081s36.8.119 59.67-1.073zm-237.23 60.805c-2.14 0-3.81-3.338-5-10.015-1.43-6.677-2.14-15.499-2.14-26.468 0-10.731.71-19.315 2.14-25.753 1.19-6.677 2.86-10.015 5-10.015z"/><path d="m1930.49 338.173v-72.251h83.96v72.251zm83.96 0v-72.251c2.14 0 3.81 3.338 5 10.015 1.43 6.438 2.14 15.022 2.14 25.753 0 10.968-.71 19.791-2.14 26.468-1.19 6.676-2.86 10.015-5 10.015zm-83.96 0c-2.14 0-3.81-3.339-5-10.015-1.43-6.677-2.15-15.5-2.15-26.468 0-10.731.72-19.315 2.15-25.753 1.19-6.677 2.86-10.015 5-10.015z"/><path d="m1846.4 338.173v-72.251h83.95v72.251zm83.95 0v-72.251c2.15 0 3.81 3.338 5 10.015 1.43 6.438 2.15 15.022 2.15 25.753 0 10.968-.72 19.791-2.15 26.468-1.19 6.676-2.85 10.015-5 10.015zm-83.95 0c-2.15 0-3.82-3.339-5.01-10.015-1.43-6.677-2.14-15.5-2.14-26.468 0-10.731.71-19.315 2.14-25.753 1.19-6.677 2.86-10.015 5.01-10.015z"/><path d="m1762.33 338.173v-72.251h83.96v72.251zm83.96 0v-72.251c2.14 0 3.81 3.338 5 10.015 1.43 6.438 2.15 15.022 2.15 25.753 0 10.968-.72 19.791-2.15 26.468-1.19 6.676-2.86 10.015-5 10.015zm-83.96 0c-2.14 0-3.81-3.339-5-10.015-1.43-6.677-2.14-15.5-2.14-26.468 0-10.731.71-19.315 2.14-25.753 1.19-6.677 2.86-10.015 5-10.015z"/><path d="m1678.24 338.173v-72.251h83.96v72.251zm83.96 0v-72.251c2.14 0 3.81 3.338 5 10.015 1.43 6.438 2.14 15.022 2.14 25.753 0 10.968-.71 19.791-2.14 26.468-1.19 6.676-2.86 10.015-5 10.015zm-83.96 0c-2.14 0-3.81-3.339-5-10.015-1.43-6.677-2.15-15.5-2.15-26.468 0-10.731.72-19.315 2.15-25.753 1.19-6.677 2.86-10.015 5-10.015z"/><path d="m1622.92 338.171v-72.251h55.38v72.251zm-95.39 34.695c12.39-.477 21.91-1.908 28.58-4.292 6.91-2.385 11.67-5.842 14.29-10.373 2.86-4.292 4.29-9.776 4.29-16.453v-191.357h62.16v191.357c0 19.553-4.04 36.602-12.14 51.148-7.86 14.545-19.06 25.991-33.59 34.337-14.52 8.346-31.91 13.115-52.16 14.307zm150.77-34.695v-72.251c1.9 0 3.57 3.339 5 10.015 1.43 6.439 2.14 15.023 2.14 25.753 0 10.969-.71 19.792-2.14 26.468-1.43 6.677-3.1 10.015-5 10.015z"/><path d="m1315.05 338.175v-72.251h62.17c10.71 0 19.65-1.073 26.79-3.219 7.38-2.385 12.98-5.485 16.79-9.3s5.72-7.988 5.72-12.519c0-2.861-.84-5.842-2.5-8.942-1.67-3.338-5.12-7.392-10.36-12.161-5.24-5.007-12.86-11.445-22.87-19.314-9.76-7.869-22.74-17.884-38.94-30.045l-26.08-19.672 37.51-57.2287 25.01 18.5997c18.1 13.353 33.46 25.275 46.09 35.767 12.86 10.492 23.22 20.507 31.08 30.045 8.1 9.538 13.93 19.315 17.51 29.33 3.81 10.015 5.71 21.222 5.71 33.621 0 19.553-4.76 36.603-14.29 51.148-9.53 14.546-22.63 25.872-39.3 33.98-16.67 8.107-35.96 12.161-57.87 12.161zm10.72-187.423v-60.4478l182.92-84.0542v77.616zm-10.72 187.423c-2.14 0-3.81-3.339-5-10.015-1.43-6.677-2.14-15.5-2.14-26.468 0-10.731.71-19.315 2.14-25.753 1.19-6.677 2.86-10.015 5-10.015z"/><path d="m1230.96 338.173v-72.251h83.96v72.251zm83.96 0v-72.251c2.14 0 3.81 3.338 5 10.015 1.43 6.438 2.14 15.022 2.14 25.753 0 10.968-.71 19.791-2.14 26.468-1.19 6.676-2.86 10.015-5 10.015zm-83.96 0c-2.15 0-3.81-3.339-5-10.015-1.43-6.677-2.15-15.5-2.15-26.468 0-10.731.72-19.315 2.15-25.753 1.19-6.677 2.85-10.015 5-10.015z"/><path d="m1146.86 338.173v-72.251h83.96v72.251zm83.96 0v-72.251c2.14 0 3.81 3.338 5 10.015 1.43 6.438 2.15 15.022 2.15 25.753 0 10.968-.72 19.791-2.15 26.468-1.19 6.676-2.86 10.015-5 10.015zm-83.96 0c-2.14 0-3.81-3.339-5-10.015-1.43-6.677-2.14-15.5-2.14-26.468 0-10.731.71-19.315 2.14-25.753 1.19-6.677 2.86-10.015 5-10.015z"/><path d="m1062.8 338.173v-72.251h83.96v72.251zm83.96 0v-72.251c2.14 0 3.81 3.338 5 10.015 1.43 6.438 2.14 15.022 2.14 25.753 0 10.968-.71 19.791-2.14 26.468-1.19 6.676-2.86 10.015-5 10.015zm-83.96 0c-2.14 0-3.81-3.339-5-10.015-1.43-6.677-2.14-15.5-2.14-26.468 0-10.731.71-19.315 2.14-25.753 1.19-6.677 2.86-10.015 5-10.015z"/><path d="m978.708 338.173v-72.251h83.962v72.251zm83.962 0v-72.251c2.14 0 3.81 3.338 5 10.015 1.43 6.438 2.14 15.022 2.14 25.753 0 10.968-.71 19.791-2.14 26.468-1.19 6.676-2.86 10.015-5 10.015zm-83.962 0c-2.144 0-3.811-3.339-5.002-10.015-1.429-6.677-2.144-15.5-2.144-26.468 0-10.731.715-19.315 2.144-25.753 1.191-6.677 2.858-10.015 5.002-10.015z"/><path d="m894.614 338.173v-72.251h83.957v72.251zm83.957 0v-72.251c2.144 0 3.811 3.338 5.002 10.015 1.429 6.438 2.144 15.022 2.144 25.753 0 10.968-.715 19.791-2.144 26.468-1.191 6.676-2.858 10.015-5.002 10.015zm-83.957 0c-2.144 0-3.811-3.339-5.002-10.015-1.429-6.677-2.143-15.5-2.143-26.468 0-10.731.714-19.315 2.143-25.753 1.191-6.677 2.858-10.015 5.002-10.015z"/><path d="m839.296 338.174v-72.251h55.376v72.251zm-95.39 34.695c12.385-.477 21.913-1.908 28.581-4.292 6.908-2.385 11.671-5.842 14.291-10.373 2.858-4.292 4.287-9.776 4.287-16.453v-191.357h62.164v191.357c0 19.553-4.049 36.602-12.147 51.148-7.86 14.545-19.054 25.991-33.583 34.337-14.528 8.346-31.915 13.115-52.16 14.307zm150.766-34.695v-72.251c1.905 0 3.573 3.339 5.002 10.015 1.429 6.439 2.143 15.023 2.143 25.753 0 10.969-.714 19.792-2.143 26.468-1.429 6.677-3.097 10.015-5.002 10.015zm-72.525-227.125c-10.003 0-18.22-3.219-24.651-9.657-6.431-6.4384-9.646-14.665-9.646-24.68 0-10.0149 3.215-18.2415 9.646-24.6797s14.648-9.6573 24.651-9.6573c10.242 0 18.459 3.2191 24.652 9.6573 6.43 6.4382 9.646 14.6648 9.646 24.6797 0 10.015-3.216 18.2416-9.646 24.68-6.193 6.438-14.41 9.657-24.652 9.657z"/></g></g></svg>