<svg xmlns="http://www.w3.org/2000/svg" xml:space="preserve" id="Layer_1" x="0" y="0" viewBox="0 0 251 158"><style>.st0{fill:rgba(0,0,0,.03)}</style><path d="m125-1-21.4 21.6L125 42.1l21.4-21.6zm-8.8 21.6 8.8-8.9 8.8 8.9-8.8 8.9z" class="st0"/><path d="m251 1.9-63.5 63.9-11.4-11.5 29.8-30-6.3-6.3-15.8-15.9-2-2.1-56.6 57L68.6 0l-2 2.1-15.8 15.8-6.3 6.3 29.8 30-11.5 11.6L0 2.6v12.7l62.8 63.3 2-2.1 15.7-15.8 6.3-6.4-29.8-30 11.4-11.5 56.5 56.9.1-.1.1.1 56.5-56.9 11.5 11.5-29.8 30 6.3 6.4 15.7 15.8 2 2.1L251 15.2zM125.3 158l21.4-21.6-21.4-21.6-21.4 21.6zm8.8-21.6-8.8 8.9-8.8-8.9 8.8-8.9z" class="st0"/><path d="m0 154.4 62.9-63.3 11.5 11.5-29.8 30 6.3 6.4 15.7 15.8 2 2.1 56.6-57 56.6 57 2-2.1 15.7-15.8 6.3-6.4-29.8-30 11.4-11.5 63.6 64-.1-12.8-63.5-63.9-2 2.1-15.7 15.8-6.3 6.3 29.8 30-11.5 11.5-56.5-56.9-.1.1-.1-.1-56.5 56.9-11.4-11.5 29.8-30-6.3-6.3-15.7-15.7-2-2.1L0 141.8z" class="st0"/></svg>